# xmcd CD Database Entry
#
# Track frame offsets:
# 150
# 12175
# 21318
# 32751
# 42388
# 58793
# 68401
# 83283
#
# Disc length: 1514 seconds
#
# Revision: 1
# Processed by: cddbd v1.4PL0 Copyright (c) Steve Scherf et al.
# Submitted via: tcd 2.0b
#
DISCID=5705e808
DTITLE=Alice Cooper/Nobody Likes Me
DYEAR=1900
DGENRE=
TTITLE0=Ain't That Just Like A Woman
TTITLE1=Painting A Picture
TTITLE2=An Instrumental
TTITLE3=I've Written Home To Mother
TTITLE4=Freak Out Song
TTITLE5=Goin' To The River
TTITLE6=Nobody Likes Me
TTITLE7=Science Fiction
EXTD=
EXTT0=
EXTT1=
EXTT2=
EXTT3=
EXTT4=
EXTT5=
EXTT6=
EXTT7=
PLAYORDER=
